/* XPM */
static char * g_3dcontour_xpm[] = {
"20 16 9 1",
" 	c #FFFFFFFFFFFF",
".	c #000000000000",
"X	c #0000FFFF0000",
"o	c #00007DF70000",
"O	c #FFFFFFFF0000",
"+	c #FFFF00000000",
"@	c #861700000000",
"#	c #0000FFFFFFFF",
"$	c #00000000FFFF",
"                    ",
"  .                 ",
"  .      Xoo        ",
"  .     OXooX       ",
"  .    +OXXXXO      ",
"  .    +OOOOOO+     ",
"  .   @++OOO+++@@   ",
"  .  #@@++++@@@###  ",
"  . $##@+@@@###$$$  ",
"  . $$##@####$$     ",
"  .  $$###$$$       ",
"   .  $$$$$    ...  ",
"    .       ...     ",
"     .   ...        ",
"      ...           ",
"                    "};
