/* XPM */
static char * g_flux3d_xpm[] = {
"20 16 3 1",
" 	c #FFFFFFFFFFFF",
".	c #000000000000",
"X	c #00000000FFFF",
"     ........       ",
"    .        ...... ",
"   .        X     . ",
"  .          X    . ",
" .   XXX  XXXXX   . ",
" .    XX     X    . ",
" .   X X    X     . ",
" .  X    XXX  XXX . ",
" .        XX   XX . ",
" .       X X  X X . ",
" .  XXX  X   X    . ",
" .   XX X   X    .  ",
" .  X X X       .   ",
" . X           .    ",
" .......      .     ",
"        ......      "};
