/* XPM */
static char * g_vectors_xpm[] = {
"20 16 3 1",
" 	c #FFFFFFFFFFFF",
".	c #000000000000",
"X	c #00000000FFFF",
"                    ",
"....................",
".                  .",
".     XXX          .",
".      XX     X    .",
".     X X  XXXXX   .",
".    X        X    .",
".  X   XXX         .",
". XXX   XX XX      .",
".  X   X X   X X   .",
". X    X      XX   .",
". X   X       XXX  .",
". X                .",
".                  .",
"....................",
"                    "};
