/* XPM */
static char * g_hbars_xpm[] = {
"20 16 3 1",
" 	c #FFFFFFFFFFFF",
".	c #000000000000",
"X	c #0000FFFF0000",
"                    ",
"....................",
".                  .",
"...........        .",
".XXXXXXXXX.        .",
".................  .",
".XXXXXXXXXXXXXXX.  .",
".................  .",
".XXXXXXXXXXXXX.    .",
"...............    .",
".XXXXXXXXXXX.      .",
"................   .",
".XXXXXXXXXXXXXX.   .",
"................   .",
"....................",
"                    "};
