/* XPM */
static char * g_surface_xpm[] = {
"20 16 3 1",
" 	c #FFFFFFFFFFFF",
".	c #000000000000",
"X	c #00000000FFFF",
"     ........       ",
"    . .      ...... ",
"   . XXXXX        . ",
"  . XXXXXXXXX     . ",
" .  XXXXXXXXXXXXXXX ",
" . XXXXXXXXXXXXXXX. ",
" . XXXXXXXXXXXXXX . ",
" . XXXXXXXXXXXXXX . ",
" .XXXXXXXXXXXXXXX . ",
" XXXXXXXXXXXXXXX  . ",
" XXXXXXXXXXXXXX.... ",
" .  . XXXXXXXX   .  ",
" . .   XXXXXX   .   ",
" ..            .    ",
" .......      .     ",
"        ......      "};
