/* XPM */
static char * g_contour_xpm[] = {
"20 16 8 1",
" 	c #00000000FFFF",
".	c #0000FFFFFFFF",
"X	c #00007DF70000",
"o	c #0000FFFF0000",
"O	c #FFFFFFFF0000",
"+	c #FFFF00000000",
"@	c #861700000000",
"#	c #000000009E79",
"  ..XXXXXXXXX.....  ",
" ..XXoooooXXXXXXX.. ",
"..XXooOOOoooooooXX..",
".XXooOO++OoooooooXX.",
".XXoOO+@@+OOOOOOooXX",
".XXOO+@@@++++++OOooo",
".XoOO++@+++@@@@+OOOo",
".XooO++@@@@@@@++OOOo",
".XXoOOO++++++++OOooo",
".XXoooOO++OOOOOOoooX",
".XXXooOOOOOooooooXXX",
"..XXoooooOOoooooXX..",
" ..XXooooooXXXXX....",
" ...XXXXXXXXXX...   ",
"   ....XXX......   #",
"##   ........    ###"};
