/* XPM */
static char * darrow_xpm[] = {
"19 20 64 1",
" 	c None",
".	c #FFFFFF",
"+	c #F7F7F7",
"@	c #EFEFEF",
"#	c #E6E6E6",
"$	c #E6DEDE",
"%	c #DEDEDE",
"&	c #DED6D6",
"*	c #D6D6D6",
"=	c #D6CECE",
"-	c #CECECE",
";	c #CECEC5",
">	c #C5C5C5",
",	c #C5C5BD",
"'	c #C5BDBD",
")	c #BDBDBD",
"!	c #BDBDB5",
"~	c #B5B5B5",
"{	c #B5B5AD",
"]	c #B5ADAD",
"^	c #ADADAD",
"/	c #ADADA5",
"(	c #ADA5A5",
"_	c #A5A5A5",
":	c #9C9C9C",
"<	c #9C9494",
"[	c #949494",
"}	c #94948C",
"|	c #948C8C",
"1	c #8C8C8C",
"2	c #8C8C84",
"3	c #8C8484",
"4	c #848484",
"5	c #8C7B84",
"6	c #847B7B",
"7	c #7B7B7B",
"8	c #7B7373",
"9	c #737373",
"0	c #73736B",
"a	c #7B6B73",
"b	c #736B6B",
"c	c #7B636B",
"d	c #6B6B6B",
"e	c #6B6B63",
"f	c #6B6363",
"g	c #6B5A63",
"h	c #DE107B",
"i	c #CE1073",
"j	c #525252",
"k	c #5A4A52",
"l	c #5A4A4A",
"m	c #524A4A",
"n	c #A5195A",
"o	c #4A4A4A",
"p	c #4A4A42",
"q	c #AD1063",
"r	c #9C195A",
"s	c #8C2152",
"t	c #A5105A",
"u	c #4A4242",
"v	c #842152",
"w	c #523A42",
"x	c #4A313A",
"y	c #52293A",
"                   ",
"      'akkkc]+     ",
"    'k8_)))_6k<    ",
"   g0>>>>>)))![|   ",
"  |^>>>>>>>>))]_g  ",
" <:,------;>>')!b' ",
"+k--kwwwwwwwwwl)~k ",
"]1*=aqiiiiiiing))9'",
"a)*%*yhhhhhhhy)>)_a",
"k*%%#5nhhhhhnc;>))k",
"k%%##@xhhhhhy-->>)k",
"k%##@+<rhhhn8*->>)k",
"a>#@++ xhhhx**->>(a",
"'6#@+  (shn6%*->>4]",
" k#@++ +whx%%*->>k+",
" '4#@+++^v5%**-):| ",
"  g-%@@@#m%%*=-^|  ",
"   [~####%%**-8g   ",
"    |k<>%%*~6k'    ",
"     +]akkka'      "};
