/* XPM */
static char * sheet_icon_xpm[] = {
"48 48 3 1",
" 	c #FFFFFFFFFFFF",
".	c #000000000000",
"X	c #D6D6D6D6D6D6",
"                                                ",
"   ...........................................  ",
"   .XXXXXXXXXXXXX.XXXXXXXXXXXXX.XXXXXXXXXXXXX.  ",
"   .XXXXXXXXXXXXX.XXXXX...XXXXX.XXXX....XXXXX.  ",
"   .XXXXXXXXXXXXX.XXXX.XXX.XXXX.XXXX.XXX.XXXX.  ",
"   .XXXXXXXXXXXXX.XXXX.....XXXX.XXXX....XXXXX.  ",
"   .XXXXXXXXXXXXX.XXXX.XXX.XXXX.XXXX.XXX.XXXX.  ",
"   .XXXXXXXXXXXXX.XXXX.XXX.XXXX.XXXX....XXXXX.  ",
"   .XXXXXXXXXXXXX.XXXXXXXXXXXXX.XXXXXXXXXXXXX.  ",
"   ...........................................  ",
"   .XXXXXXXXXXXXX.             .             .  ",
"   .XXXXXX.XXXXXX.             .             .  ",
"   .XXXXXX.XXXXXX.             .             .  ",
"   .XXXXXX.XXXXXX.             .             .  ",
"   .XXXXXX.XXXXXX.             .             .  ",
"   .XXXXXXXXXXXXX.             .             .  ",
"   ...........................................  ",
"   .XXXXXXXXXXXXX.             .             .  ",
"   .XXXXX....XXXX.             .             .  ",
"   .XXXXXXX..XXXX.             .             .  ",
"   .XXXXX..XXXXXX.             .             .  ",
"   .XXXXX....XXXX.             .             .  ",
"   .XXXXXXXXXXXXX.             .             .  ",
"   ...........................................  ",
"   .XXXXXXXXXXXXX.             .             .  ",
"   .XXXXX....XXXX.             .             .  ",
"   .XXXXXX..XXXXX.             .             .  ",
"   .XXXXXXXX.XXXX.             .             .  ",
"   .XXXXX....XXXX.             .             .  ",
"   .XXXXXXXXXXXXX.             .             .  ",
"   ...........................................  ",
"   .XXXXXXXXXXXXX.             .             .  ",
"   .XXXXX.XX.XXXX.             .             .  ",
"   .XXXXX....XXXX.             .             .  ",
"   .XXXXXXXX.XXXX.             .             .  ",
"   .XXXXXXXX.XXXX.             .             .  ",
"   .XXXXXXXXXXXXX.             .             .  ",
"   ...........................................  ",
"   .XXXXXXXXXXXXX.             .             .  ",
"   .XXXXX....XXXX.             .             .  ",
"   .XXXXX...XXXXX.             .             .  ",
"   .XXXXXXXX.XXXX.             .             .  ",
"   .XXXXX....XXXX.             .             .  ",
"   .XXXXXXXXXXXXX.             .             .  ",
"   ...........................................  ",
"                                                ",
"                                                ",
"                                                "};
