/* XPM */
static char * factor_xpm[] = {
"24 24 4 1",
" 	c None",
".	c #965896589658",
"X	c #CF3CCF3CCF3C",
"o	c #000000000000",
"                        ",
"                        ",
"                        ",
"              X..X      ",
"             .ooooX     ",
"             .oXXoo     ",
"             oo  .o     ",
"            Xo.         ",
"            .oX         ",
"            oo          ",
"          oooooo        ",
"          X.o.XX        ",
"           .oX          ",
"           o.X          ",
"           o.           ",
"          .o.           ",
"          .oX           ",
"       X  oo            ",
"       o.Xo.            ",
"       oooo             ",
"        oo              ",
"                        ",
"                        ",
"                        "};
