/* XPM */
static char * g_function_xpm[] = {
"20 16 3 1",
" 	c #FFFFFFFFFFFF",
".	c #965896589658",
"X	c #000000000000",
"                    ",
"         .          ",
"        XXX.        ",
"       XX XX        ",
"       XX .X        ",
"      .X.           ",
"      .X    X    X  ",
"     XXXXX X      X ",
"      XX  .X X  X X.",
"     .X.  .X  XX  X.",
"     XX   .X  XX  X.",
"  X. XX   .X X  X X.",
"  XX X.    X      X ",
"  .XXX      X    X  ",
"    .               ",
"                    "};
