/* XPM */
static char * function_small_xpm[] = {
"19 19 3 1",
" 	c None",
".	c #965896589658",
"X	c #000000000000",
"                   ",
"                   ",
"        .          ",
"       XXX.        ",
"      .X XX        ",
"      XX .X        ",
"     .X.           ",
"     .X    X    X  ",
"    XXXXX X      X ",
"     XX  .X X  X X.",
"    .X.  .X  XX  X.",
"    .X   .X  XX  X.",
" X. XX   .X X  X X.",
" XX X.    X      X ",
" .XXX      X    X  ",
"   .               ",
"                   ",
"                   ",
"                   "};
