/* XPM */
static char * as2_xpm[] = {
"32 32 113 2",
"  	c None",
". 	c #000000",
"+ 	c #A0A0A0",
"@ 	c #8D8D8D",
"# 	c #555555",
"$ 	c #D0D0D0",
"% 	c #FFFFFF",
"& 	c #FF2A2A",
"* 	c #AAAAAA",
"= 	c #535353",
"- 	c #4D4D4D",
"; 	c #808080",
"> 	c #1C1C1C",
", 	c #DCDCDC",
"' 	c #FFA0A0",
") 	c #FF1B1B",
"! 	c #FFC0C0",
"~ 	c #959595",
"{ 	c #0E0E0E",
"] 	c #D5D5D5",
"^ 	c #E3E3E3",
"/ 	c #FFEEEE",
"( 	c #FF0000",
"_ 	c #FF4E4E",
": 	c #FFF4F4",
"< 	c #8E8E8E",
"[ 	c #FF7B7B",
"} 	c #FF2020",
"| 	c #FFB0B0",
"1 	c #393939",
"2 	c #FFB8B8",
"3 	c #FFAAAA",
"4 	c #FF1C1C",
"5 	c #FFD5D5",
"6 	c #C6C6C6",
"7 	c #D4D4D4",
"8 	c #2A2A2A",
"9 	c #7E7E7E",
"0 	c #2B2B2B",
"a 	c #757575",
"b 	c #6A6A6A",
"c 	c #FFEDED",
"d 	c #B8B8B8",
"e 	c #2B1C1C",
"f 	c #FFBFBF",
"g 	c #FFF5F5",
"h 	c #D0C0C0",
"i 	c #FF9F9F",
"j 	c #FF6565",
"k 	c #2B0000",
"l 	c #FF7070",
"m 	c #FFFAFA",
"n 	c #6A3232",
"o 	c #EF3B3B",
"p 	c #FF1515",
"q 	c #B80E0E",
"r 	c #FF5555",
"s 	c #FFC6C6",
"t 	c #717171",
"u 	c #F1F1F1",
"v 	c #FF8E8E",
"w 	c #B80000",
"x 	c #FF2B2B",
"y 	c #FF5151",
"z 	c #5B4C4C",
"A 	c #D79393",
"B 	c #FF3535",
"C 	c #4E2323",
"D 	c #FFF1F1",
"E 	c #FFE3E3",
"F 	c #FFD4D4",
"G 	c #4E0000",
"H 	c #FF6B6B",
"I 	c #FFCCCC",
"J 	c #FFCACA",
"K 	c #FF4040",
"L 	c #FFE0E0",
"M 	c #EFEFEF",
"N 	c #CFCFCF",
"O 	c #4E4E4E",
"P 	c #FFDCDC",
"Q 	c #232323",
"R 	c #7B7B7B",
"S 	c #6E6E6E",
"T 	c #989898",
"U 	c #868686",
"V 	c #070707",
"W 	c #FF0707",
"X 	c #FF9595",
"Y 	c #F8F8F8",
"Z 	c #151515",
"` 	c #FFCBCB",
" .	c #FF0505",
"..	c #FF6A6A",
"+.	c #DFDFDF",
"@.	c #C2C2C2",
"#.	c #FF2323",
"$.	c #686868",
"%.	c #5F5F5F",
"&.	c #434343",
"*.	c #424242",
"=.	c #181818",
"-.	c #982D2D",
";.	c #6D6D6D",
">.	c #BABABA",
",.	c #A3A3A3",
"'.	c #494949",
").	c #626262",
"!.	c #C8C8C8",
"~.	c #AFAFAF",
"{.	c #909090",
"].	c #E2E2E2",
"^.	c #707070",
". . . . . . . . . . . . . . . . . . . . . . . . . . . . . . . . ",
". . . . . . . . . . . . . . . . . . . . . . . . . . . . . . . . ",
". . % % % % % % % % % % % % % % % % % % % % % % % % % % % % . . ",
". . % % % % % % % % % % % % % % % % % % % % % % % % % % % % . . ",
". . % % + @ # $ % % % % % % # . % & * . * % % % % % % % % % . . ",
". . % % = - # $ % % % % % ; > , ' ) ! ~ { ] % % % % % % % % . . ",
". . % % % , # $ % % % % ^ # * / ( ( _ : # < % % % % % % % % . . ",
". . % % % , # $ % % % % * . * [ ( ( } | # . % % % % % % % % . . ",
". . % % % , # $ % % % ^ 1 # ^ 2 3 4 3 5 6 > # % % % % % % % . . ",
". . % % % , # $ % % % 7 . ; % % % & % % % 8 . % % % % % % % . . ",
". . % % % , # $ % % % 7 # % % % % & % % % 8 . % % % % % % % . . ",
". . % % @ 9 # $ % % % . # % % % % _ % % % % . 0 % % % % % % . . ",
". . % % a b # $ % c 3 { < % % % % d % % % % # e f g % % % % . . ",
". . % % % , # h i j ( 0 % % % % ; ; * % % % % k } l ! m % % . . ",
". . % % % , n o p ( ( q r r s t * u < * v r r w ( ( x y % % . . ",
". . % % % , z A B ( ( C 5 5 D 0 % % * ; E 5 F G ( ( H I % % . . ",
". . % % % , # $ % J ( 0 % % % 0 % % * ; % % % k K L % % % % . . ",
". . % % M N # $ % 8 . O % % # 7 % P % ; * % % Q . ; % % % % . . ",
". . % % R S # $ % 8 . % % % # 7 % & % ; * % % 7 . ; % % % % . . ",
". . % % T U # $ % 8 . % % % # 7 % & % ; * % % 7 . ; % % % % . . ",
". . % % % , # $ % 8 . % % % 6 u % & % ] ^ % % 7 . ; % % % % . . ",
". . % % % , # $ t V ] % % % % _ & W & X % % % Y < Z d % % % . . ",
". . % % % , # $ # . % % % % % ` ( ( K L % % % % * . * % % % . . ",
". . % % % , # $ # . % % % % % % }  ...% % % % % * . * % % % . . ",
". . % % +.@.# $ # . % % % % % % 5 #.E % % % % % * . * % % % . . ",
". . % % $.%.&.; *.=.T T T T T T T -.T T T T T T ;.=.;.T % % . . ",
". . % % >.,.'.R R R R R ).# R R R R R # ).R R R R R '.S % % . . ",
". . % % % , # !.M M M M ~.$.] M M M M {.R ].M M M M ^.@ % % . . ",
". . % % % % % % % % % % % % % % % % % % % % % % % % % % % % . . ",
". . % % % % % % % % % % % % % % % % % % % % % % % % % % % % . . ",
". . . . . . . . . . . . . . . . . . . . . . . . . . . . . . . . ",
". . . . . . . . . . . . . . . . . . . . . . . . . . . . . . . . "};
