/* XPM */
static char * as_xpm[] = {
"32 32 6 1",
" 	c #000000000000",
".	c #FFFFFFFFFFFF",
"X	c #303030303030",
"o	c #FFFF00000000",
"O	c #CCCCCCCCCCCC",
"+	c #FFFFC0C0C0C0",
"                                ",
"                                ",
"  ..X.........  .o.  .........  ",
"  .XX........ O.+o+.O ........  ",
"  ooooo...... ..ooo.. ........  ",
"  +ooo+..... O.+ooo+.O .......  ",
"  .ooo...... O.ooooo.O .......  ",
"  .+o+..... O....o....O ......  ",
"  ..o...... O....o....O ......  ",
"  ..X...... .....o....O ......  ",
"  ..X..... O.....o.....O .....  ",
"  .XX..... O...........O .....  ",
"  ..X...+o ...... .....O o+...  ",
"  ..X.+ooo .....O.O..... ooo+.  ",
"  ..Xooooooooo. ... .ooooooooo  ",
"  ..X.+oooO....O...O....Oooo+.  ",
"  ..X...+oO.... ... ....Oo+...  ",
"  ..X...O O...O.....O...O O...  ",
"  ..X...O .... ..o.. .... O...  ",
"  .XX... O....O..o..O....O ...  ",
"  ..o... O.... ..o.. ....O ...  ",
"  .+o+.. O.......o.......O ...  ",
"  .ooo.O ......ooooo...... O..  ",
"  +ooo+O ......+ooo+...... O..  ",
"  oooooO .......ooo....... O..  ",
"  .. ..o+.......+o+.......+o..  ",
"  .. ..ooo+......o......+ooo..  ",
"  .XXXXoooooXXXXXXXXXXXoooooXX  ",
"  ..X..ooo+.X.......X...+oooX.  ",
"  .....o+.................+oX.  ",
"                                ",
"                                "};
