/* XPM */
static char * g_bars_xpm[] = {
"20 16 3 1",
" 	c #FFFFFFFFFFFF",
".	c #000000000000",
"X	c #0000FFFFFFFF",
"                    ",
"....................",
".                  .",
".       ....       .",
".       .XX.       .",
".       .XX.       .",
".    ....XX.       .",
".    .XX.XX.       .",
".    .XX.XX....    .",
". ....XX.XX.XX.    .",
". .XX.XX.XX.XX.... .",
". .XX.XX.XX.XX.XX. .",
". .XX.XX.XX.XX.XX. .",
". .XX.XX.XX.XX.XX. .",
"....................",
"                    "};
