/* XPM */
static char * numeric_xpm[] = {
"24 24 4 1",
" 	c None",
".	c #965896589658",
"X	c #CF3CCF3CCF3C",
"o	c #000000000000",
"                        ",
"                        ",
"                        ",
"                        ",
"                        ",
"                        ",
"                        ",
"                        ",
"     ooo ooo            ",
"      oX Xo             ",
"       o o              ",
"        o               ",  
"       o o              ",  
"      oX Xo    o.       ",  
"     ooo ooo o oX       ",  
"               oX       ",  
"              oooo      ",  
"                        ",  
"                        ",
"                        ",
"                        ",
"                        ",
"                        ",
"                        "};
