/* XPM */
static char * g_lines_xpm[] = {
"20 16 5 1",
" 	c #FFFFFFFFFFFF",
".	c #000000000000",
"X	c #00000000FFFF",
"o	c #FFFF00000000",
"O	c #00007DF70000",
"                    ",
"....................",
".                  .",
". X        XX    o .",
". X      XX     o  .",
".  X   XX     oo   .",
".   XXX     oo   O .",
".        ooo   OO  .",
".     ooo    OO    .",
". oooo     OO      .",
".       OOO        .",
".    OOO           .",
". OOO              .",
".                  .",
"....................",
"                    "};
