/* XPM */
static char * matrix_icon_xpm[] = {
"48 48 5 1",
" 	c #FFFFFFFFFFFF",
".	c #000000000000",
"X	c #D75CD75CD75C",
"o	c #FFFFFFFFC71B",
"O	c #FFFF00000000",
"                                                ",
" .............................................. ",
" .XXXXXXXX.XXXXXXXX.XXXXXXXX.XXXXXXXX.XXXXXXXX. ",
" .XXXXXXXX.XXX...XX.XX....XX.XXX...XX.XX....XX. ",
" .XXXXXXXX.XX.XXX.X.XX.XXX.X.XX.XXX.X.XX.XXX.X. ",
" .XXXXXXXX.XX.....X.XX....XX.XX.XXXXX.XX.XXX.X. ",
" .XXXXXXXX.XX.XXX.X.XX.XXX.X.XX.XXX.X.XX.XXX.X. ",
" .XXXXXXXX.XX.XXX.X.XX....XX.XXX...XX.XX....XX. ",
" .XXXXXXXX.XXXXXXXX.XXXXXXXX.XXXXXXXX.XXXXXXXX. ",
" .............................................. ",
" .XXXXXXXX.oooooooo.oooooooo.oooooooo.oooooooo. ",
" .XXXXXXXX.oooooooo.oooooooo.oooooooo.oooooooo. ",
" .XXX.XXXX.oooooooo.oooooooo.ooooooooooooooooo. ",
" .XXX.XXXX.oooooooo.oooooooo.ooooooooooooooooo. ",
" .XXX.XXXX.oooooooo.oooooooo.ooooooooooooooooo. ",
" .XXX.XXXX.oooooooo.oooooooo.ooooooOOOOooOOooo. ",
" .XXXXXXXX.oooooooo.oooooooo.oooooooOOoooOOooo. ",
" .XXXXXXXX.oooooooo.oooooooo.oooooooOOoooOoooo. ",
" ................................ooooOOoOooooo. ",
" .XXXXXXXX.oooooooo.oooooooo.ooooooooOOoOooooo. ",
" .XXXXXXXX.oooooooo.oooooooo.ooooooooOOOoooooo. ",
" .XXXXXXXX.oooooooo.oooooooo.oooooooooOOoooooo. ",
" .XX....XX.oooooooo.oooooooo.oooooooooOooooooo. ",
" .XXXX..XX.oooooooo.oooooooo.ooooooooOOooooooo. ",
" .XX..XXXX.oooooooo.oooooooo.ooooooooOoooooooo. ",
" .XX....XX.oooooooo.oooooooo.oooooooOOoOOooooo. ",
" .XXXXXXXX.oooooooo.oooooooo.oooooOOOooOOooooo. ",
" .XXXXXXXX.oooooooo.oooooooo.ooooooooooOOooooo. ",
" ...............................oooooooOOoo.... ",
" .XXXXXXXX.oooooooo.oooooooo.ooooooooooOOooooo. ",
" .XXXXXXXX.oooooooo.oooooooo.ooooooooooOOooooo. ",
" .XX....XX.ooooooooooooooooo.ooooooooooOOooooo. ",
" .XXX..XXX.ooooooooooooooooooooooooooooOOooooo. ",
" .XXXXX.XX.ooooooooooooooooooooooooooooOOooooo. ",
" .XX....XX.oooOOOooOOoooooooooOooooooooOOooooo. ",
" .XXXXXXXX.ooooOOoOOoooooooooooOooooOooOOooOoo. ",
" .XXXXXXXX.ooooOOOOooooooooooooOOooooOOOOOOooo. ",
" ............oooOOoooooOOOOOOOOOOOooooOOOOoooo. ",
" .XXXXXXXX.ooooOOOoooooOOOOOOOOOOOoooooOOooooo. ",
" .XXXXXXXX.ooooOoOOooooooooooooOOooooooooooooo. ",
" .XX.X..XX.oooOOoOOOoooooooooooOoooooooooooooo. ",
" .XX....XX.ooOOoooOOooooooooooOooooooooooooooo. ",
" .XXXXX.XX.ooooooooooooooooooooooooooooooooooo. ",
" .XXXXX.XX.oooooooo.oooooooooooooooooooooooooo. ",
" .XXXXXXXX.oooooooo.oooooooo.oooooooo.oooooooo. ",
" .XXXXXXXX.oooooooo.oooooooo.oooooooo.oooooooo. ",
" .............................................. ",
"                                                "};
