/* XPM */
static char * new_plot_xpm[] = {
"24 24 7 1",
" 	c None",
"x	c #FFFFFFFFFFFF",
".	c #FFFF00000000",
"X	c #FFFFB2CA69A6",
"o	c #FFFFFFFF0000",
"O	c #000000000000",
"+	c #00000000FFFF",
"                  .     ",
"               .  .  .  ",
"                .XXX.   ",
"                XoooX   ",
"  OOOOOOOOOOOO..XoIoX.. ",
"   OxxxxxxxxxxxxXoooX   ",
"  OOxOOOOOxOxxxx.XXX.   ",
"   OxOxxxOxxx+x.xx.O .  ",
"  OOxOOOOOxOx++xx+.O    ",
"   Oxxxxxxxx+xx++xxO    ",
"  OOxxxxxxxO+xxxxxxO    ",
"   Oxxxxxxxx+xxxxxxO    ",
"  OOOxx+xOx+OxOxOxOO    ",
"   Oxxx++xx+xxxxxxxO    ",
"  OOxx+xx++xxxxxxxxO    ",
"   Ox+xxxxxOxxxxxxxO    ",
"  OOx+xxxxxxxxxxxxxO    ",
"   O++xxxxxOxxxxxxxO    ",
"  OOOOOOOOOOOOOOOOOO    ",
"   O O O O O O O O O    ",
"                        ",
"                        ",
"                        ",
"                        "};
