/* XPM */
static char * plot_icon2_xpm[] = {
"48 48 5 1",
" 	c #FFFFFFFFFFFF",
".	c #000000000000",
"X	c #00000000FFFF",
"o	c #FFFF00000000",
"O	c #0000FFFFFFFF",
"                                                ",
"     ..                                         ",
"     .  .................................       ",
"     .. .                  ..           .       ",
"        .               . ...           .       ",
"        ..               ...            .       ",
"        .               ...             .       ",
"     .. .       ....   ...              .       ",
"     .. ...   ..X   .....               .       ",
"      . .    .   X    ..           XX   .       ",
" . .    .   X.    X   ...         X  X o.       ",
" . .    .. X.     X    .         X   oo .       ",
"  .     .  X. O    X   ..        X  o X .       ",
"  .  .. . X . OO   X   .        X  o   X.       ",
"      . ..X .  O   X   ..       X o    X.       ",
"      . . X .  OO   X  .        oo     X.       ",
"        .X   .  OO  X . .      o        .       ",
"        .X   .      X .       oX        .       ",
"     .. .X    ..    ..  .    o X        .       ",
"     .. X       ....       oo X         .       ",
"      . ... . . . .X. . . o . X . . . . .       ",
"        .          X     o    X         .       ",
"        .           X  oo    X          .       ",
"        ..          X o      X          .       ",
"        .            o  .    X          .       ",
"     .. .          oo       X           .       ",
"      . ..        o  X  .   X.........  .       ",
"     .. .        o   X      X.       .  .       ",
"        .      oo     X .  X . X ... .. .       ",
"        ..    o       X    X .       .. .       ",
"        .    o         X. X  .       .. .       ",
"     .. .  oo           XX   . o ... .. .       ",
"      . ..o             .    .       .. .       ",
"      . .o                   .......... .       ",
"        .               .      ........ .       ",
"        ..                              .       ",
"        .   .   .   .   .   .   .   .   .       ",
"     .  . . . . . . . . . . . . . . . . .       ",
"    . . .................................       ",
"     .                                          ",
"        .   .   ..  ..  ..  .   .   .   .       ",
"       . .  .   ..  ..  .   .  ..   .  ..       ",
"        .   .   .    .   .  .  ...  .   .       ",
"                                                ",
"                       . .                      ",
"                        .                       ",
"                       . .                      ",
"                                                "};
