/* XPM */
static char * g_scatter_xpm[] = {
"20 16 3 1",
" 	c #FFFFFFFFFFFF",
".	c #000000000000",
"X	c #00000000FFFF",
"                    ",
"....................",
".                  .",
".            XX    .",
".            XX    .",
".         XX       .",
".         XX   XX  .",
".              XX  .",
".       XX         .",
".       XX      XX .",
".    XX         XX .",
". XX XX            .",
". XX               .",
".                  .",
"....................",
"                    "};
