/* XPM */
static char * new_polar_xpm[] = {
"24 24 9 1",
" 	c None",
"x	c #FFFFFFFFFFFF",
".	c #FFFF00000000",
"X	c #08200820FFFF",
"o	c #FFFFB2CA69A6",
"O	c #000000000000",
"+	c #0000FFFFFFFF",
"@	c #00000000FFFF",
"#	c #FFFFFFFF0000",
"    .                 X ",
" .  .  .           XXX  ",
"  .ooo.  OOOOO   XX+@   ",
"  o###oxxxxOxxx@@++@    ",
"..o# #o..xxOxxX++@@     ",
"  o###oxxxxxxxx@X++@    ",
"  .ooo.xxxxxxxX++@@x    ",
" . x.xx.xxOO @+XXxxx    ",
"   x.xxxxOxx@@@xxxxxO   ",
"  OxxOxxOxx@xxxxxxxxxO  ",
"  OxxOxxOxxxxxxOxxxxxO  ",
"  OxxOxxOxxxxxxOxxOxxO  ",
"  OOOOOOOxxxxxxOOOOOOO  ",
"  OxxOxxOxxxxxxOxxOxxO  ",
"  OxxOxxxOxxxxOxxxOxxO  ",
"   OxxOxOxOOOOxOxOxxO   ",
"   OxxxOxxxOxxxxOxxxO   ",
"    OxOxOxxOxxOOxOOO    ",
"     OxxxOOOOOxxxxO     ",
"      OxxxxOxxxxxO      ",
"       OOxxOxxxOO       ",
"         OOOOOO         ",
"                        ",
"                        "};
