/* XPM */
static char * rename_xpm[] = {
"22 13 250 2",
"  	c #E2FFFC",
". 	c #E2FFFA",
"+ 	c #EDFFFF",
"@ 	c #F2FFFF",
"# 	c #F8FFFF",
"$ 	c #FCFFFD",
"% 	c #FFFBF8",
"& 	c #FFFAF6",
"* 	c #FFFBF9",
"= 	c #FFFBFC",
"- 	c #FFFBFF",
"; 	c #FDFAFF",
"> 	c #FCFBFF",
", 	c #F8FBFF",
"' 	c #F3F8FF",
") 	c #F7FAFF",
"! 	c #FFF8FF",
"~ 	c #F6EAFF",
"{ 	c #FFF4FF",
"] 	c #FEF6FF",
"^ 	c #F5F3FF",
"/ 	c #FDFFF7",
"( 	c #F0FFFF",
"_ 	c #F5FFFF",
": 	c #EBF7F7",
"< 	c #F9FFFF",
"[ 	c #898E8A",
"} 	c #8C8D88",
"| 	c #A8A5A0",
"1 	c #FFFEFA",
"2 	c #FFFCFD",
"3 	c #FFF7FF",
"4 	c #FFF5FF",
"5 	c #F5E6FF",
"6 	c #291B50",
"7 	c #251458",
"8 	c #241357",
"9 	c #2A1D52",
"0 	c #281B51",
"a 	c #685BA3",
"b 	c #FDF3FF",
"c 	c #FFFCFF",
"d 	c #FEFFFD",
"e 	c #FFFAFF",
"f 	c #ECE5ED",
"g 	c #FFFEFF",
"h 	c #FFFFFF",
"i 	c #8A8F8B",
"j 	c #A4ABA3",
"k 	c #787E74",
"l 	c #ECEDE7",
"m 	c #FBF5F7",
"n 	c #FFF3FF",
"o 	c #FFEDFF",
"p 	c #320046",
"q 	c #41055D",
"r 	c #440F67",
"s 	c #260B52",
"t 	c #100047",
"u 	c #291971",
"v 	c #7B6FB9",
"w 	c #F0F0F8",
"x 	c #FFF2FF",
"y 	c #FFE3F3",
"z 	c #9A9599",
"A 	c #919692",
"B 	c #B6C2B8",
"C 	c #9AA89B",
"D 	c #9AA69C",
"E 	c #FBFFFF",
"F 	c #F8E3FF",
"G 	c #4C1966",
"H 	c #340057",
"I 	c #DCA4FF",
"J 	c #D0B4FF",
"K 	c #E0D0FF",
"L 	c #6251AD",
"M 	c #372A79",
"N 	c #F0EAFF",
"O 	c #FEFEFF",
"P 	c #FFEEFF",
"Q 	c #FFF1FF",
"R 	c #898385",
"S 	c #929791",
"T 	c #D0E0D3",
"U 	c #7A917F",
"V 	c #90AB9A",
"W 	c #DCF6ED",
"X 	c #ECFFFF",
"Y 	c #E6E4FF",
"Z 	c #271B63",
"` 	c #341F7A",
" .	c #CEB7FF",
"..	c #C9B8FE",
"+.	c #CEBFFF",
"@.	c #695AAF",
"#.	c #150953",
"$.	c #F4F4FE",
"%.	c #FFDCFB",
"&.	c #FFE1FF",
"*.	c #FFE7FF",
"=.	c #FFE2F9",
"-.	c #C592A3",
";.	c #A47681",
">.	c #E2BBBE",
",.	c #B39394",
"'.	c #A3898A",
").	c #FFF1FA",
"!.	c #FFF6FF",
"~.	c #110654",
"{.	c #231A77",
"].	c #6F64C2",
"^.	c #6F61AE",
"/.	c #6B5AA8",
"(.	c #2F1E7E",
"_.	c #8D80D2",
":.	c #FEFDFF",
"<.	c #FFE0FF",
"[.	c #83244E",
"}.	c #C15682",
"|.	c #78002D",
"1.	c #86002C",
"2.	c #C5325F",
"3.	c #9E062F",
"4.	c #B31B44",
"5.	c #95042D",
"6.	c #890735",
"7.	c #88194E",
"8.	c #86306F",
"9.	c #FFCDFF",
"0.	c #40156F",
"a.	c #30157C",
"b.	c #14016C",
"c.	c #261176",
"d.	c #1B066F",
"e.	c #1D0881",
"f.	c #7261CB",
"g.	c #E7DDFF",
"h.	c #FEFAFF",
"i.	c #FFE4FF",
"j.	c #711C43",
"k.	c #8A2851",
"l.	c #871642",
"m.	c #800029",
"n.	c #A91744",
"o.	c #D13660",
"p.	c #AD103B",
"q.	c #920027",
"r.	c #A31748",
"s.	c #AF3870",
"t.	c #832265",
"u.	c #FFDEFF",
"v.	c #4A1472",
"w.	c #2A056F",
"x.	c #D3B8FF",
"y.	c #D1BBFF",
"z.	c #CCB7FF",
"A.	c #6550C7",
"B.	c #271680",
"C.	c #887EBB",
"D.	c #FCF7FF",
"E.	c #A78595",
"F.	c #A37D8A",
"G.	c #B08690",
"H.	c #BD9097",
"I.	c #BA8B91",
"J.	c #C2939D",
"K.	c #A07183",
"L.	c #FFECFF",
"M.	c #21004D",
"N.	c #4B2288",
"O.	c #D3B0FF",
"P.	c #CFBAFF",
"Q.	c #C1B1FC",
"R.	c #9584E2",
"S.	c #332678",
"T.	c #7C759F",
"U.	c #FEFCFF",
"V.	c #F3F6FD",
"W.	c #FBFEFF",
"X.	c #9FA2A7",
"Y.	c #A0A5A8",
"Z.	c #939997",
"`.	c #A9AEAA",
" +	c #80857E",
".+	c #9FA29B",
"++	c #91908C",
"@+	c #8E898D",
"#+	c #A398A9",
"$+	c #462671",
"%+	c #330E6B",
"&+	c #C3A2FB",
"*+	c #C8B3F6",
"=+	c #D5C6FF",
"-+	c #9A8BDE",
";+	c #20145E",
">+	c #5F597D",
",+	c #F7F6FF",
"'+	c #788082",
")+	c #9CA1A4",
"!+	c #FEFFFF",
"~+	c #F9F3F3",
"{+	c #FFFDFB",
"]+	c #FDF3F4",
"^+	c #B3A6AD",
"/+	c #A493A5",
"(+	c #FFF0FF",
"_+	c #FCE4FF",
":+	c #210746",
"<+	c #210550",
"[+	c #412975",
"}+	c #241055",
"|+	c #2C1C65",
"1+	c #1A0965",
"2+	c #1A0D5D",
"3+	c #8A83AD",
"4+	c #FBF9FF",
"5+	c #F8FCFB",
"6+	c #F5F9F8",
"7+	c #9E9FA1",
"8+	c #908F94",
"9+	c #F6F1F5",
"0+	c #FFFDFF",
"a+	c #FFF9FC",
"b+	c #898085",
"c+	c #A298A3",
"d+	c #211440",
"e+	c #312259",
"f+	c #261752",
"g+	c #201349",
"h+	c #1C0E4C",
"i+	c #251667",
"j+	c #7A6EB6",
"k+	c #E3DEFE",
"l+	c #FFF4F5",
"m+	c #FFFAFD",
"n+	c #FEF2F6",
"o+	c #F9EEF6",
"p+	c #FFF9FF",
"q+	c #FCFAFF",
"r+	c #F8F9FB",
"s+	c #FCFFFF",
"t+	c #F6FBFE",
"u+	c #E7EBF4",
"v+	c #F6F8FF",
"w+	c #FBFBFF",
"x+	c #EFEEFF",
"y+	c #F6ECFF",
"z+	c #FEF7FF",
"A+	c #FCFFF6",
"  . + @ # $ % & * = - ; > , ' ) ! ~ { ] ^ / ",
"( @ _ : < [ } | 1 2 3 4 5 6 7 8 9 0 a b c d ",
"e e f g h i j k l m n n o p q r s t u v e w ",
"x y 3 e z A B C D E - F o G H I J K L M N O ",
"P Q n ! R S T U V W X _ Y Z `  ...+.@.#.e $.",
"%.&.*.=.-.;.>.,.'.).3 !.4 ~.{.].^./.(._.! :.",
"<.[.}.|.1.2.3.4.5.6.7.8.9.0.a.b.c.d.e.f.g.h.",
"i.j.k.l.m.n.o.p.q.r.s.t.u.v.w.x.y.z.A.B.C.D.",
"4 Q { E.F.G.H.I.J.K.o L.*.M.N.O.P.Q.R.S.T.U.",
"V.W.X.Y.Z.`. +.+++@+#+!.Q $+%+&+*+=+-+;+>+,+",
"# # '+)+!+g ~+{+]+^+/+(+_+:+<+[+}+|+1+2+3+4+",
"5+6+7+8+g 9+0+a+2 b+c+3 3 d+e+f+g+h+i+j+k+O ",
"l+m+n+o+p+- q+r+s+E t+u+W.v+w+x+- p+y+z+g A+"};
