#define rename_width 22
#define rename_height 13
static unsigned char rename_bits[] = {
   0x00, 0x00, 0x00, 0x00, 0xe0, 0x07, 0x40, 0xe0, 0x0f, 0x10, 0xe0, 0x0c,
   0xa0, 0x60, 0x0c, 0x20, 0xe0, 0x0f, 0xfe, 0xef, 0x0f, 0xfe, 0x6f, 0x0c,
   0x00, 0xe2, 0x1c, 0x54, 0xe0, 0x18, 0x00, 0xe4, 0x0f, 0x04, 0xe0, 0x0f,
   0x00, 0x00, 0x00 };
