/* XPM */
static char * g_scatter3d_xpm[] = {
"20 16 3 1",
" 	c #FFFFFFFFFFFF",
".	c #000000000000",
"X	c #00000000FFFF",
"     ........       ",
"    . .      ...... ",
"   .  . XXX       . ",
"  .   .  X   XXX  . ",
" .    . XXX   X   . ",
" . XXX. XXX  XXX  . ",
" .  X . XXX  XXX  . ",
" . XXX.  X   XXX  . ",
" . XXX. XXX   X   . ",
" . XXX.      XXX  . ",
" .  X.............. ",
" . XXX           .  ",
" . .            .   ",
" ..            .    ",
" .......      .     ",
"        ......      "};
