/* XPM */
static char * set_column_xpm[] = {
"24 24 8 1",
"       c None",
"x	c #FFFFFFFFFFFF",
".	c #FFFF00000000",
"X	c #000000000000",
"o	c #59655D755965",
"O	c #AEBAAAAAAEBA",
"+	c #FFFF96582081",
"@	c #C71BC30BC71B",
"                        ",
"               .        ",
"  Xooooooooo  ..        ",
"  XOOOooOOOo ......     ",
"  XOOXOOXOOo ......     ",
"  XOOooooOOo  .. ..     ",
"  XOOoOOoOOo   . ..     ",
"  Xooooooooo     ..     ",
"  XxxxxxxxxX     ..     ",
"  Xxxx.+xxxX     ..     ",
"  Xxxx+.xxxX            ",
"  XXXX.+XXXX  X @X@oXo  ",
"  Xxxx+.xxxX XX X XX X  ",
"  Xxxx.+xxxX  X   X oX  ",
"  Xxxx+.xxxX  X oX  oX  ",
"  XXXX.+XXXX @X@X @o X  ",
"  Xxxx+.xxxX XXXXXXoXo  ",
"  Xxxx.+xxxX            ",
"  Xxxx+.xxxX            ",
"  XXXX.+XXXX            ",
"  Xx+.+.+.xX            ",
"  Xxx+.+.xxX            ",
"    xx+.xxx             ",
"                        "};
