/* XPM */
static char * sheet_icon2_xpm[] = {
"48 48 9 1",
" 	c #FFFFFFFFFFFF",
".	c #000000000000",
"X	c #D6D6D6D6D6D6",
"o	c #FFFF00000000",
"O	c #FFFF5E5EF3F3",
"+	c #FFFF0000FFFF",
"@	c #0000FFFFFFFF",
"#	c #FFFF91915555",
"$	c #FFFFFFFF0000",
"                                                ",
"   ...........................................  ",
"   .XXXXXXXXXXXXX.XXXXXXXXXXXXX.XXXXXXXXXXXXX.  ",
"   .XXXXXXXXXXXXX.XXXXX...XXXXX.XXXX....XXXXX.  ",
"   .XXXXXXXXXXXXX.XXXX.XXX.XXXX.XXXX.XXX.XXXX.  ",
"   .XXXXXXXXXXXXX.XXXX.....XXXX.XXXX....XXXXX.  ",
"   .XXXXXXXXXXXXX.XXXX.XXX.XXXX.XXXX.XXX.XXXX.  ",
"   .XXXXXXXXXXXXX.XXXX.XXX.XXXX.XXXX....XXXXX.  ",
"   .XXXXXXXXXXXXX.XXXXXXXXXXXXX.XXXXXXXXXXXXX.  ",
"   ...........................................  ",
"   .XXXXXXXXXXXXX.             .             .  ",
"   .XXXXXX.XXXXXX.             .   ...       .  ",
"   .XXXXXX.XXXXXX.      oo     .  .OO+.      .  ",
"   .XXXXXX.XXXXXX.    oooooo   .  ...O.      .  ",
"   .XXXXXX.XXXXXX.      oo     . .@@@..      .  ",
"   .XXXXXXXXXXXXX.             . ...@@.      .  ",
"   ..............................###.@........  ",
"   .XXXXXXXXXXXXX.             ..####.       .  ",
"   .XXXXX....XXXX.             .####.        .  ",
"   .XXXXXXX..XXXX.    oooooo   .####.        .  ",
"   .XXXXX..XXXXXX.            .####.         .  ",
"   .XXXXX....XXXX.            .####.         .  ",
"   .XXXXXXXXXXXXX.           .####.          .  ",
"   ...........................####............  ",
"   .XXXXXXXXXXXXX.          .####.           .  ",
"   .XXXXX....XXXX.          .####. oo  oo    .  ",
"   .XXXXXX..XXXXX.         .####.  o  oo     .  ",
"   .XXXXXXXX.XXXX.         .####.    oo  o   .  ",
"   .XXXXX....XXXX.        .####.    oo  oo   .  ",
"   .XXXXXXXXXXXXX.        .####.             .  ",
"   .......................####................  ",
"   .XXXXXXXXXXXXX.       .####..             .  ",
"   .XXXXX.XX.XXXX.      .####. .   oo   oo   .  ",
"   .XXXXX....XXXX.      .####. .     ooo     .  ",
"   .XXXXXXXX.XXXX.     .####.  .     ooo     .  ",
"   .XXXXXXXX.XXXX.     .####.  .   oo   oo   .  ",
"   .XXXXXXXXXXXXX.    ...##.   .             .  ",
"   ....................$$.#...................  ",
"   .XXXXXXXXXXXXX.    .$$$.    .             .  ",
"   .XXXXX....XXXX.    ..$..    .   ooooooo   .  ",
"   .XXXXX...XXXXX.    ...      .             .  ",
"   .XXXXXXXX.XXXX.    .        .   ooooooo   .  ",
"   .XXXXX....XXXX.             .             .  ",
"   .XXXXXXXXXXXXX.             .             .  ",
"   ...........................................  ",
"                                                ",
"                                                ",
"                                                "};
