/* XPM */
static char * symbol_star_xpm[] = {
"18 18 2 1",
" 	c #FFFFFFFFFFFF",
".	c #000000000000",
"                  ",
"                  ",
"                  ",
"                  ",
"        ..        ",
"     .. .. ..     ",
"     ........     ",
"      ......      ",
"    ..........    ",
"    ..........    ",
"      ......      ",
"     ........     ",
"     .. .. ..     ",
"        ..        ",
"                  ",
"                  ",
"                  ",
"                  "};
