/* XPM */
static char * target_xpm[] = {
"32 32 2 1",
" 	c #000000000000",
".	c #FFFFFFFFFFFF",
"                                ",
"                                ",
"  ............................  ",
"  ............................  ",
"  ............................  ",
"  ...                      ...  ",
"  ...                      ...  ",
"  ...  ........  ........  ...  ",
"  ...  ........  ........  ...  ",
"  ...  ........  ........  ...  ",
"  ...  ........  ........  ...  ",
"  ...  ........  ........  ...  ",
"  ...  ........  ........  ...  ",
"  ...  ..................  ...  ",
"  ...  ..................  ...  ",
"  ...        ......        ...  ",
"  ...        ......        ...  ",
"  ...  ..................  ...  ",
"  ...  ..................  ...  ",
"  ...  ........  ........  ...  ",
"  ...  ........  ........  ...  ",
"  ...  ........  ........  ...  ",
"  ...  ........  ........  ...  ",
"  ...  ........  ........  ...  ",
"  ...  ........  ........  ...  ",
"  ...                      ...  ",
"  ...                      ...  ",
"  ............................  ",
"  ............................  ",
"  ............................  ",
"                                ",
"                                "};
