/* XPM */
static char * g_bubbles_xpm[] = {
"20 16 3 1",
" 	c #FFFFFFFFFFFF",
".	c #000000000000",
"X	c #FFFF0000FFFF",
"                    ",
"....................",
".                  .",
".           ..     .",
".      ..  .XX.    .",
".     .XX.  ..     .",
".    .XXXX.        .",
".    .XXXX.   ..   .",
".     .XX.   .XX.  .",
".  ..  ..   .XXXX. .",
". .XX.   .. .XXXX. .",
". .XX.   ..  .XX.  .",
".  ..         ..   .",
".                  .",
"....................",
"                    "};
