/* XPM */
static char *calendar[] = {
/* width height num_colors chars_per_pixel */
"   115    36      256            2",
/* colors */
".. c #040204",
".# c #5c89bc",
".a c #7cc2ec",
".b c #841e04",
".c c #b4828f",
".d c #2c4884",
".e c #b4a6bc",
".f c #9c563c",
".g c #64a2cc",
".h c #c4c2c4",
".i c #e4e4dc",
".j c #d4522c",
".k c #5c0204",
".l c #dca2bc",
".m c #8c86ac",
".n c #44629c",
".o c #2c2224",
".p c #e4c6bc",
".q c #dc8a94",
".r c #847674",
".s c #240204",
".t c #6c6a6c",
".u c #a4a2b1",
".v c #d4d2d9",
".w c #9492b0",
".x c #d4728c",
".y c #b4b2bc",
".z c #c46a44",
".A c #e4b29c",
".B c #040236",
".C c #b490ac",
".D c #e4f2fc",
".E c #5c96c4",
".F c #bc3a1c",
".G c #7c4e3c",
".H c #64628c",
".I c #acaab9",
".J c #1c2464",
".K c #bc6e7c",
".L c #ec6e64",
".M c #cc9cb4",
".N c #84628c",
".O c #cccacc",
".P c #f4a68c",
".Q c #a48a7c",
".R c #dcdad7",
".S c #9c96a4",
".T c #647aac",
".U c #7482ac",
".V c #8c4e34",
".W c #cca28c",
".X c #e4deec",
".Y c #846e94",
".Z c #04164f",
".0 c #444244",
".1 c #fceefc",
".2 c #4c77ac",
".3 c #ccb2a4",
".4 c #f4f2f4",
".5 c #0c161c",
".6 c #ac5654",
".7 c #74b2d7",
".8 c #e4eaf4",
".9 c #dcaeb8",
"#. c #e49274",
"## c #bcbacb",
"#a c #fcb6ac",
"#b c #bc99b4",
"#c c #243874",
"#d c #747291",
"#e c #4c362c",
"#f c #fcc6b4",
"#g c #a4a2bc",
"#h c #a4aec4",
"#i c #e4764c",
"#j c #848294",
"#k c #1c0204",
"#l c #b492a4",
"#m c #c4c2d4",
"#n c #e46234",
"#o c #9c86ac",
"#p c #d4764c",
"#q c #34265c",
"#r c #dcdae4",
"#s c #9c9eb8",
"#t c #847aa4",
"#u c #141650",
"#v c #544274",
"#w c #5c7cac",
"#x c #f4fafc",
"#y c #7c7aa1",
"#z c #6c222c",
"#A c #f4cab4",
"#B c #040221",
"#C c #9c3244",
"#D c #c4a6b4",
"#E c #8c8ea4",
"#F c #2c3234",
"#G c #241654",
"#H c #d4d4e4",
"#I c #8c9abc",
"#J c #649ac4",
"#K c #d43634",
"#L c #644e7c",
"#M c #d4cedc",
"#N c #a486ac",
"#O c #b43a1c",
"#P c #d4a2b6",
"#Q c #ecaea0",
"#R c #f4bac4",
"#S c #848aa4",
"#T c #ccc6d9",
"#U c #8c5254",
"#V c #6cabd4",
"#W c #e4e4ec",
"#X c #c4666c",
"#Y c #ec8274",
"#Z c #946e6c",
"#0 c #b4b5cc",
"#1 c #040247",
"#2 c #c492ac",
"#3 c #242e6c",
"#4 c #d49ad4",
"#5 c #ccccdc",
"#6 c #547eb4",
"#7 c #b45e6c",
"#8 c #74bae4",
"#9 c #eceae4",
"a. c #fc927c",
"a# c #bcc2d4",
"aa c #b45ab4",
"ab c #4c3a74",
"ac c #a43224",
"ad c #7c7e7c",
"ae c #a47a9c",
"af c #b44a54",
"ag c #dc463c",
"ah c #d476cc",
"ai c #fcd2d4",
"aj c #545484",
"ak c #3c0204",
"al c #642a3c",
"am c #fc7e64",
"an c #cc7e74",
"ao c #ecb2c4",
"ap c #942a74",
"aq c #745684",
"ar c #5c6a9c",
"as c #cc969c",
"at c #ac6244",
"au c #7c668c",
"av c #9c728c",
"aw c #dc6a41",
"ax c #bc7a5c",
"ay c #7c6254",
"az c #9c4644",
"aA c #d4aea4",
"aB c #341634",
"aC c #dc574c",
"aD c #2c022c",
"aE c #f45a44",
"aF c #8c5a64",
"aG c #ec8e84",
"aH c #dc766c",
"aI c #84cef4",
"aJ c #c4827c",
"aK c #e4beac",
"aL c #fccbd4",
"aM c #fcdedc",
"aN c #c43a3c",
"aO c #6c92c4",
"aP c #7c525c",
"aQ c #e49a8c",
"aR c #141e5c",
"aS c #7c2224",
"aT c #5c568c",
"aU c #9c7674",
"aV c #bc624c",
"aW c #b4aec4",
"aX c #4c4a7c",
"aY c #ac8aac",
"aZ c #f4beac",
"a0 c #9c9ab6",
"a1 c #8c4a4c",
"a2 c #fcc2cc",
"a3 c #8482ac",
"a4 c #7c769c",
"a5 c #5c8ebc",
"a6 c #342234",
"a7 c #fca699",
"a8 c #949aac",
"a9 c #6ca6d4",
"b. c #24225c",
"b# c #f46c5c",
"ba c #8c6694",
"bb c #e4aabc",
"bc c #c498b1",
"bd c #aca6bc",
"be c #acacc7",
"bf c #3c2a64",
"bg c #8c7ca0",
"bh c #fcfdfc",
"bi c #fccebc",
"bj c #343637",
"bk c #ac84a4",
"bl c #344a84",
"bm c #bc92ac",
"bn c #d49ab4",
"bo c #6c7eac",
"bp c #5476ac",
"bq c #bcbdd4",
"br c #ec784c",
"bs c #bc8ea4",
"bt c #eceef4",
"bu c #543e74",
"bv c #e44a3c",
"bw c #945e64",
"bx c #f48a84",
"by c #4c6294",
"bz c #ecf2f9",
"bA c #7c82a4",
"bB c #4c423c",
"bC c #141614",
"bD c #a49eb4",
"bE c #1c164c",
"bF c #bcaebc",
"bG c #040214",
"bH c #6496c4",
"bI c #04022c",
"bJ c #8c8eb4",
"bK c #ac3224",
"bL c #fcbeac",
"bM c #dca6ba",
"bN c #8c8aa8",
"bO c #a4a6b4",
"bP c #d4d6d4",
"bQ c #9496ac",
"bR c #b4b6c4",
"bS c #646694",
"bT c #acaebc",
"bU c #ccced4",
"bV c #dcdedc",
"bW c #f4f6fc",
"bX c #74b6dc",
"bY c #a4a6c2",
"bZ c #c4c6d8",
"b0 c #dcdeea",
"b1 c #847e9c",
"b2 c #7c7e9c",
"b3 c #c4aabc",
"b4 c #649ecc",
"b5 c #d4a6bc",
"b6 c #f4becc",
"b7 c #947264",
"b8 c #fc9684",
"b9 c #8486aa",
/* pixels */
"......................................................................................................................................................................................................................................",
"......................................................................................................................................................................................................................................",
"......................................................................................................................................................................................................................................",
"......................................................................................................................................................................................................................................",
"..........................................................................................................................................bGbGbG#BbIbI#B.Z.Z.Z.Z#1#1.B..............bCbCbCbCadadadadbCbCbC............................",
"............................................................................................................................#B#B#B.B#1.B#1#c#c#c.#.#.##6aIaIaIaI.d.d.dbGbGbGbG.s#k.saUaUaUaU.1.1.1.1#4#4#4a6a6a6a6....................",
"......................................................................................................#BbG#B.B.B.B.B.JaR.J.J.n.n.nb4b4b4b4.a.a.a#8.a.a.aaO.#aO.#aTajaT#B#B#B#B.6.6.6#Q#Q#Q#Q.x.x.x.xahahahaaaaaaaaaBaBaB..............",
"................................................................................bGbGbGbGbIbI#B.Z.Z.Z.Z.dbl.d.#.#.#.#bXbXbXbX#V#V#VbHbHbHbH.T#w#w.Y.Y.Yau.lb5.l.lasas#2#z#z#z#zbibi#f.3aAaA.3#Zb7b7#ZafafafapapapapaDaDaD..............",
"..................................................................#B#B#B.B.B.B.B#3#c#3#c.2.2.2#Va9a9#VbXbXbX.E.E#J.E#w#w#w#w.U.U.UbZ#TbZ#T#W#W#W#b#b#b#b.9bb.9.9#U#U#U#Q#Q#Q#QaKaKaK.t.t.t.t.0bBbB.0#p#p#pbKbKbKbK#k#k#k..............",
"............................................bGbGbGbGbI.BbIaRaRaR#u.n.n.nb4b4b4b4bXbXbXbX.ga9.g#w#6#w#6bobobo#0#0#0#0#r#r#r#r#m###mbhbhbhbhbhbhbhbdbdbdbdaFaFaFaFananan#fbibibi.r.r.r#F#F#F#Fatatatataw#naw.k.k.k.k....................",
"............................................bGbGbGbG.B.BbIaRaRaRaR.n.n.nb4b4b4b4.7.7bX.7.g#V.g#6#w#6#6bobobo#0#0#0#0#r#r#r#r###m##bhbhbhbhbhbhbhbdbdbdbdaFaFaFaFananan#Abi#A#f.r.r.rbj#F#Fbjatatatatawawaw.k.k.k.k....................",
"..............................#B#B#B.Z.Z.Z.Z.d.d.d.da5a5.#.7.7#V.7#V#V#V.#.#.#.#.Tbp#w#wbYbY#h.v#H.v.v######bhbhbhbhbhbhbhbh#m#m#mb0.X#Wb0#5.O#T#d#d#d#dazazazaz#fbibi.Q.Q.Q.Q#F#F#F.G.V.G.G#i#i#iaw.b.b.b............................",
".................B.B.B#3#3#3#3.2.2.2.7#V.7.7#V.7#V.7.E.E.Ebpbpbpbp#I#I#Ia#.h#m#m#0#0bF#0bhbhbhbhbhbhbh#m#T#m#W#W.X#W#rb0#r#ra0a0a0bNb9.m.mbTbTbTa1a1a1a1#aaK#aaZ.W.W.Wbjbjbjbj#e#e#e#i#iaw#i#ObK#O#O#k#k#k............................",
".................J.J.JbX#8bX#8b4.gb4.2.2.2.2ararararb9b9b9.m.m.mbNbWbWbhbhbhbhbh#5#M#5#5#Wb0#W#W#W#W#W#g#g#gbNb9bJbNbZbZ#TbZ#W#W#WbYbObY.u#Z#Z#ZaQ#.aQaQ.A.A.A.A.0.0.0.o.o.o.o.z.zaV.j.j.j.jakakakak..................................",
".................B#1.BbybybybybAb2bA#y#y#yad########.i.i#9.y##.y##.R.v#H.4btbt.4aW#0aW#0a3a3b9#mbq#mbqb0b0b0bq#0bqbqbhbhbhbhbhbhbh.u.u.u.uaJaJaJaZaZaZaZayayayay.5.5.5.f.f.f.f#n#n#naSaSaSaS#B#B#B#B..................................",
"................#B#B#Ba4a4a4a4#9#9#9.h.O.O.ObObObObO.O.O.ObQ.wbQ.w#y#y#y#########H#H#5#H#0#0#0bhbhbhbhbWbhbh#Db3#D#D.X#W.X#W#W#W#W#jbAadb2.p.p.pbL#A#fbLaxaxaxax.V.V.Vawawawawacacac.c.c.c.c#GbE#GbE..................................",
"......................aXaXaXaXbPbPbPbO.u.u.u.H.H.H.Ha0a8a0.h.h#m.hbebeaWbWbWbWbWbhbhbhbh#5#5#5#Y#Y#Y#Ybvbvbv#K#K#K#KaCaCaCaC##bR##.I.I.I.IaA#PaA#A#A#A#A.PaQ.P.Pbrbrbr.F.F.F.FbwbwaFbsaY.c.Cabababab#B#B#B............................",
"......................#u#u#u#ubgbgbg.Cbs.C.CaYaYaYaYbWbWbWbhbhbhbh#M#5#5.Xb0.X.Xbt.4bzbtaGaGaGaNaNaNaN.e#D.eb0b0bVb0.L.L.L.L#a#a#a.O.O.O.O.q.q.qbxbxbxbx#.#.#.#.aVaVaValalalalavavav#Pb5b5#Pasbnbcbc.B#1#1............................",
"......................#B#B#BbI#2#2#2aLaiaiaibMbMbMbM.v.v.vbW.4bWbW#mbZbZa3a3a3bA###0###0aCaCaC.C#l#l#lbhbhbhbhbhbhbha7a7a7a7b8b8b8bU.ObU.O#7#7#7#C#C#C#CaP#UaPaP.S.S.S.S#s#s.SbM.lbMbiaLaLaLaLa2aLaLbubububGbGbGbG....................",
"......................bI.BbIbI#2#2#2aiaiaiaibMbMbMbM.v#H#H.4.4.4.4#m#m#ma3bAa3b9#0###0##aCaCaC#l#l#l#lbhbhbhbhbhbhbha7a7a7a7b8b8b8bUbUbUbU#7#7#7#C#C#C#CaPaPa1aP.S.S.SbDbD#sbDbMbMbMa2aLaLaLaLaLaLaL#v#vbubGbGbGbG....................",
"......................#B#B#B#B.NbabaaLaLaLa2bn.Mbn.M#t#t#y#0#0#0#0bZ#mbZbebebebebhbhbhbWamamamb3bFb3b3.D.D.Da7a7a7a7b#b#b#b##X#X#XbT#h#h#h.ybTbT#E#E#EbN.X.R#r.RbWbh.4btbt#9bz#lbm.Ca2a2a2a2bbbb.9bbaqaqaq.B.B.BbI....................",
"..............................#q#q#qaYbsaY.Cbm#2bm#2#o#N#NbWbW#xbWbhbhbh#5bZ#5bZbz.Dbzbza.a.a.aHaHaHaH.K.K.KaEaEaEaEaCaCaCaC.c.c.c#x#xbh#xbhbhbh#r.X#r#r#5#5#5#5bhbhbhbtbzbzbzbg#t.mau.Nauaub1b1b1b1#s.u#sb..Jb..J....................",
"...............................B#1#1bbbbbbbbaiaiaLai.M.M.M#Wb0#W#Wbhbhbh#5#5#5#5bJbJb9bJbFbFbFb#b#b#b#agagagaMaMaMaMbhbhbhbhbZbZbZb0b0b0b0bhbhbh#9#Wbt#W.wbJbJ.w#gbO.ua0.Sa0a0b9#S.ma8a8a8bQ.ib0.ib0#9.i.i#d#d#d#d#B#B#B..............",
"..............................bIbIbIbkbkbkbkaLaLaiaLbn#P#P.mbNbN.m#0#0#0aW#0aW#0#s#s#s#sbWbW.4bhbhbhbhbqa#.h.8.8.8btbhbhbhbh#W.i#W.w.w.w.w.Ibebe#s#sa0#s#d#da4#d.I.I.I.R.RbP.RbP.v.vbQbQbQbQ.RbV.R.R.i.i.ibY.IbdbY#1#1#1..............",
"..............................bGbGbGbububububsbmbsbmbkbkbk#o#o#o#obz.4btbhbhbhbh#m#m#m#mbtbtbtbhbhbhbhb0b0b0#sbD#s#s#0##.y#0bebebe#y#y#y#ybT.ybT.RbP.RbP.ha#.h.ha0#sa0.i.i.i.i.i.i.i.w.w.w.wb2#yb2#yajajaj#u#u#u#u.B.B.B..............",
"....................................bE#GbE#GaoaoaoaoaiaLaLbmbm#bbmbtbtbtbhbhbhbh#r#H#r#H#gbY#g#####0##.Ibebeb9b9b9.mb0#rb0.Xbhbhbh#HbU#H.vbTaWbT.i.i.i.i.R.R.RbP#E#E#E#S#EbNbNajaXaj#u#u#u#ubIbIbIbIbG#BbG............................",
".....................................B.B.B.B#P#P#P#PaLaiaibMbM.lbMbebebe##bqbq##bYbYbYbdb9.mb9b0b0.Xb0bhbhbh#m#m#ma##9#W#Wbtbhbhbhbhbhbhbh.wbQbQbQbQbQbQajajajaj#u#u#ubIbI#BbI..bG....................................................",
"....................................#B#B#B#Bau.N.N.Nbcbcbcaeaeaeae#t#t#tb0b0b0b0bhbWbh#x#mbq#m.4.4bW.4bhbhbhbtbtbtbtbe#0aWaW#0#0#0bS.HbS.H#u#u#ubIbIbIbIbGbGbGbG......................................................................",
"....................................#B#B#B#B.N.Nau.N#bbc#baeaeaeae#t.Y#tb0#Wb0.XbhbWbhbW#mbq#m.4bW.4.4bhbhbhbtbtbtbtaWbebeaW#0#0#0.HbSbSbS#u#u#ubI.BbIbIbGbGbGbG......................................................................",
"............................................bfbfbfbfbbbbbba2b6a2b6#b#b#b#xbW#x#xbhbhbhbhb0#Wb0a#bqa##m#0#0##bS.HbS.H#u#u#u#u.B.B.BbG#BbGbG............................................................................................",
"............................................#ubE#ubE#R#R#Raiaiaiai#P#P#P#TbZ.ObZ###0###0bSbSbSbE#u#u#u.B.B.BbG#BbG#B..................................................................................................................",
"............................................bIbIbI.Bbkbkbkbmbmbmbm#L#L#L#u#u#u#u.B.B.B.B#BbGbG........................................................................................................................................",
"............................................#B#B#BbG#1#1#1.B.B.B.B#B#B#B..............................................................................................................................................................",
"......................................................................................................................................................................................................................................",
"......................................................................................................................................................................................................................................",
"......................................................................................................................................................................................................................................"
};
