/* XPM */
static char * logical_xpm[] = {
"24 24 4 1",
" 	c None",
".	c #965896589658",
"X	c #CF3CCF3CCF3C",
"o	c #000000000000",
"                        ",
"                        ",
"                        ",
"                        ",
"                        ",
"                        ",
"   oooooooooooooooooo   ",
"   oooooooooooooooooo   ",
"   ......XooXXXXXXXX.   ",
"         Xoo            ",
"         Xoo            ",
"         Xoo            ",  
"         Xoo            ",  
"         Xoo            ",  
"         Xoo            ",  
"         Xoo            ",  
"         Xoo            ",  
"         Xoo            ",  
"                        ",
"                        ",
"                        ",
"                        ",
"                        ",
"                        "};
