/* XPM */
static char * g_lpoints_xpm[] = {
"20 16 4 1",
" 	c #FFFFFFFFFFFF",
".	c #000000000000",
"X	c #FFFF00000000",
"o	c #00000000FFFF",
"                    ",
"....................",
".                  .",
".        XXoo      .",
".      oo  ooX     .",
".      oo     X    .",
".      X       oo  .",
".     X        oo  .",
".     X         X  .",
".   oo          X  .",
".   oo           X .",
".  X              X.",
".XX                .",
".                  .",
"....................",
"                    "};
