/* XPM */
static char * g_impulses_xpm[] = {
"20 16 3 1",
" 	c #FFFFFFFFFFFF",
".	c #000000000000",
"X	c #FFFF00000000",
"                    ",
"....................",
".                  .",
".        X         .",
".        X         .",
".  X     X         .",
".  X     X         .",
".  X  X  X     X   .",
".  X  X  X     X   .",
".  X  X  X     X   .",
".  X  X  X  X  X   .",
".  X  X  X  X  X   .",
".  X  X  X  X  X   .",
".  X  X  X  X  X   .",
"....................",
"                    "};
